<svg width="29" height="81" viewBox="0 0 29 81" fill="none" xmlns="http://www.w3.org/2000/svg">
<path d="M16.5098 44.7421C15.2224 45.1551 14.1585 45.8522 13.318 46.8339C12.4773 47.815 11.9651 48.8871 11.7813 50.0491C11.5974 51.2111 11.7484 52.3604 12.2344 53.4965C12.7203 54.6331 13.6332 55.5497 14.9728 56.2473C15.2881 56.2473 15.485 56.3763 15.564 56.6344C15.6426 56.8926 15.5242 57.0216 15.2095 57.0216C13.9221 56.7635 12.7926 56.2341 11.8207 55.4338C10.0081 53.9614 9.00998 52.0636 8.82609 49.7391C8.72103 48.5771 8.83266 47.4537 9.16104 46.369C9.48937 45.2842 9.9425 44.2899 10.5204 43.386C11.2296 42.4307 12.0702 41.6041 13.0422 40.907C13.0947 40.8552 13.2457 40.7393 13.4952 40.5584C13.7448 40.3775 13.9878 40.2099 14.2242 40.0549C14.4606 39.8999 14.8152 39.6545 15.2881 39.3187L13.8302 32.4234C12.543 33.4822 11.269 34.6506 10.0082 35.929C8.74728 37.2073 7.60462 38.557 6.58015 39.9772C5.55573 41.3978 4.73484 42.902 4.11751 44.4903C3.50024 46.0786 3.1916 47.7505 3.1916 49.5069C3.1916 51.1338 3.53962 52.664 4.23576 54.0973C4.93185 55.5306 5.85781 56.7767 7.0136 57.8351C8.16939 58.8939 9.50249 59.727 11.0129 60.3341C12.5233 60.9408 14.0535 61.2444 15.6033 61.2444C15.656 61.2444 15.8987 61.2185 16.3323 61.1666C16.7659 61.1153 17.2253 61.0508 17.7111 60.973C18.1974 60.8958 18.6439 60.8117 19.0512 60.7213C19.4579 60.6308 19.6618 60.534 19.6618 60.4309L19.4251 59.3461C18.4008 54.2586 17.4287 49.3906 16.5098 44.7421ZM17.8886 44.5871L21.1197 59.966C22.9849 59.2684 24.2454 58.0741 24.9022 56.3827C25.5591 54.6912 25.7097 52.9739 25.3552 51.2306C25.0007 49.4874 24.1668 47.9441 22.8531 46.6012C21.5399 45.2583 19.8851 44.5871 17.8886 44.5871ZM13.7514 23.8625C14.5656 23.449 15.3209 22.8296 16.017 22.0029C16.7132 21.1768 17.3566 20.2919 17.9478 19.3494C18.5385 18.4069 19.0512 17.4448 19.4843 16.4632C19.9179 15.4821 20.2659 14.5914 20.5285 13.7906C20.8174 12.9385 21.0143 11.9828 21.1197 10.924C21.2246 9.86511 21.0541 8.97442 20.6075 8.25091C20.2923 7.60562 19.8786 7.23116 19.3664 7.12752C18.8538 7.02437 18.3416 7.06299 17.8295 7.24387C17.3173 7.42474 16.8315 7.71512 16.3715 8.1155C15.9121 8.51587 15.577 8.87078 15.3671 9.18071C14.7888 10.1878 14.2831 11.3111 13.8499 12.5509C13.4164 13.7906 13.1209 15.0753 12.9633 16.4055C12.8057 17.7352 12.786 19.0136 12.9042 20.2406C13.0224 21.4671 13.3048 22.6746 13.7514 23.8625ZM12.5693 25.0632C12.1228 23.359 11.7287 21.6866 11.3872 20.0465C11.0457 18.4069 10.875 16.7218 10.875 14.9913C10.875 13.7261 10.967 12.3377 11.1509 10.8272C11.3347 9.31662 11.6696 7.84418 12.1556 6.41086C12.6415 4.97753 13.3114 3.69282 14.1651 2.55672C15.019 1.42013 16.1547 0.59396 17.5734 0.0772392C17.7047 0.0259094 17.8359 0 17.9672 0C18.1512 0 18.368 0.103149 18.6176 0.309935C18.8672 0.516232 19.1297 0.819811 19.4057 1.22018C19.6812 1.62056 19.9243 2.03364 20.1347 2.45992C20.3445 2.88572 20.5021 3.17659 20.6075 3.33155C21.3166 4.64853 21.8352 6.04959 22.1639 7.53425C22.4921 9.01939 22.6825 10.4977 22.7352 11.9696C22.8402 14.191 22.7154 16.386 22.3608 18.5555C22.0063 20.7246 21.2903 22.8423 20.2132 24.9082C19.8458 25.5281 19.4713 26.1543 19.0905 26.7869C18.7096 27.4199 18.2566 28.033 17.731 28.6269C17.6261 28.7306 17.4356 28.9178 17.1597 29.1886C16.8837 29.4599 16.6013 29.7376 16.3124 30.0216C16.0235 30.3056 15.7674 30.5706 15.5441 30.8155C15.3209 31.0609 15.2095 31.2095 15.2095 31.2614L16.8245 39.0087C16.835 39.0596 17.6325 39.0087 17.6325 39.0087C19.174 39.0278 20.8059 39.2732 22.2231 39.8222C23.589 40.4421 24.7645 41.2942 25.7495 42.3789C26.7346 43.4637 27.5222 44.6839 28.1134 46.0395C28.7046 47.3956 29 48.7707 29 50.1654C29 51.5596 28.7897 52.9803 28.3695 54.4263C27.2925 57.1639 25.572 59.1912 23.2081 60.5081C22.9451 60.6631 22.5707 60.8376 22.0849 61.0312C21.599 61.2248 21.4086 61.5284 21.5135 61.9415C22.144 64.7553 22.5707 66.6912 22.7944 67.752C23.0177 68.8128 23.1818 70.1816 23.2867 71.8584C23.3916 73.4618 23.1092 74.904 22.4394 76.1946C21.7696 77.49 20.8701 78.5411 19.7404 79.3526C18.6111 80.169 17.5798 80.6431 16.6475 80.7898C15.7147 80.9316 15.0777 81 14.7366 81C13.5544 81 12.3986 80.78 11.269 80.34C9.87682 79.8268 8.7079 79.0397 7.76225 77.9789C6.81659 76.9181 6.34376 75.6275 6.34376 74.1071C6.34376 73.149 6.62615 72.1664 7.19092 71.1593C7.75568 70.1523 8.49777 69.4288 9.41712 68.9937C10.4416 68.4755 11.3675 68.3337 12.195 68.5635C13.0224 68.7982 13.7054 69.2381 14.2439 69.8834C14.7824 70.5287 15.1568 71.3109 15.3671 72.225C15.577 73.1441 15.564 73.9996 15.3273 74.8013C15.0911 75.603 14.6118 76.2825 13.8893 76.835C13.1669 77.3923 12.1621 77.6416 10.875 77.5927C11.4004 78.5215 12.1359 79.1081 13.0815 79.3526C14.0272 79.6019 14.9992 79.6165 15.9971 79.4112C16.9956 79.2059 17.9344 78.8246 18.8145 78.2673C19.6946 77.7149 20.3843 77.1136 20.883 76.4683C21.1983 76.0039 21.435 75.3977 21.5926 74.6498C21.7502 73.8969 21.8422 73.1196 21.8681 72.3033C21.8944 71.4918 21.8681 70.8562 21.7895 70.4065C21.7104 69.9519 21.5792 69.2479 21.3952 68.2946C20.6075 65.1709 20.1083 63.2057 19.898 62.4039C19.7931 62.1483 19.5106 62.0642 19.0512 62.1546C18.5912 62.245 18.2039 62.3291 17.8886 62.4039C15.6297 62.6924 13.7382 62.5604 12.2147 62.0192C9.85056 61.3993 7.76881 60.295 5.96944 58.7067C4.17007 57.1189 2.72533 55.1948 1.63518 52.9348C0.545077 50.6753 0 48.9579 0 47.7827C0 46.608 0 45.8654 0 45.5555C0 43.4637 0.36776 41.5009 1.10328 39.6672C2.49546 36.8006 4.14382 34.1666 6.04825 31.7649C7.95269 29.3631 10.1264 27.1291 12.5693 25.0632Z" fill="#4A3434"/>
</svg>
